<svg width="22" height="27" viewBox="0 0 22 27" fill="none" xmlns="http://www.w3.org/2000/svg">
<path opacity="0.4" fill-rule="evenodd" clip-rule="evenodd" d="M21.4877 7.38341C21.5005 8.75103 21.0504 10.085 20.2064 11.1807C19.3209 12.7545 16.4515 14.015 16.4515 14.015C15.3673 14.4411 14.2057 14.651 13.0361 14.6321H6.03871V17.427H21.2851V19.5704H6.03871V25.1274L9.15505 25.3869V26.9997H0.646843V25.3869L3.76318 25.1274V19.4818L0.5 19.4997V17.446L3.76318 17.3964V1.91317L0.646843 1.65368V0.0218931H12.2137C14.6614 -0.133443 17.0893 0.534534 19.0882 1.91317C20.7313 3.26867 21.6204 5.29538 21.4877 7.38341ZM17.4537 3.33769C15.9348 2.27874 14.0795 1.77302 12.2141 1.90948H6.03906V12.7381H11.9465C14.4577 12.7381 16.2934 12.2498 17.4537 11.273C18.6159 10.2925 19.2561 8.85335 19.194 7.36073C19.2826 5.83156 18.6408 4.3479 17.4537 3.33769Z" fill="white"/>
</svg>
