<svg width="19" height="29" viewBox="0 0 19 29" fill="none" xmlns="http://www.w3.org/2000/svg">
<path fill-rule="evenodd" clip-rule="evenodd" d="M18.9872 7.93047C18.9988 9.39938 18.5915 10.8321 17.828 12.009C17.0269 13.6994 14.431 15.0532 14.431 15.0532C13.4501 15.5109 12.3992 15.7363 11.341 15.716H5.01054V18.718H18.8039V21.0201H5.01054V26.9887L7.82988 27.2674V28.9997H0.132528V27.2674L2.95187 26.9887V20.9249L-0.000320435 20.9442V18.7383L2.95187 18.6851V2.05506L0.132528 1.77636V0.0237112H10.5971C12.8114 -0.14313 15.008 0.574321 16.8164 2.05506C18.3029 3.51096 19.1072 5.68778 18.9872 7.93047ZM15.3379 3.58677C13.9637 2.44938 12.2852 1.90621 10.5976 2.05277H5.01109V13.6835H10.3555C12.6274 13.6835 14.2882 13.1589 15.3379 12.1098C16.3893 11.0567 16.9685 9.51095 16.9124 7.90778C16.9925 6.26535 16.4118 4.6718 15.3379 3.58677Z" fill="white"/>
</svg>
