<svg width="31" height="41" viewBox="0 0 31 41" fill="none" xmlns="http://www.w3.org/2000/svg">
<path d="M17.8627 0.8125C22.0103 0.8125 25.2322 1.9114 27.5285 4.1092C29.8426 6.30701 30.9997 9.20078 30.9997 12.7905C30.9997 16.4169 29.8426 19.3198 27.5285 21.4993C25.2322 23.6788 22.0103 24.7685 17.8627 24.7685H9.61208V36.5817L13.9644 37.351V40.8125H-0.000320435V37.351L4.35196 36.5817V5.07074L-0.000320435 4.30151V0.8125H4.35196H17.8627ZM9.61208 20.5378H17.8627C20.4972 20.5378 22.4642 19.8143 23.7637 18.3674C25.0809 16.9022 25.7396 15.0616 25.7396 12.8455C25.7396 10.6293 25.0809 8.77953 23.7637 7.29602C22.4642 5.8125 20.4972 5.07074 17.8627 5.07074H9.61208V20.5378Z" fill="white"/>
<rect x="0.155792" y="28.1543" width="28.709" height="3.16484" fill="white"/>
</svg>
